<svg width="780" height="140" viewBox="0 0 780 140" fill="none" xmlns="http://www.w3.org/2000/svg">
<path d="M19.7044 44L11.8204 29.69H9.60641V44H0.372414V6.092H15.8704C18.8584 6.092 21.3964 6.614 23.4844 7.658C25.6084 8.702 27.1924 10.142 28.2364 11.978C29.2804 13.778 29.8024 15.794 29.8024 18.026C29.8024 20.546 29.0824 22.796 27.6424 24.776C26.2384 26.756 24.1504 28.16 21.3784 28.988L30.1264 44H19.7044ZM9.60641 23.156H15.3304C17.0224 23.156 18.2824 22.742 19.1104 21.914C19.9744 21.086 20.4064 19.916 20.4064 18.404C20.4064 16.964 19.9744 15.83 19.1104 15.002C18.2824 14.174 17.0224 13.76 15.3304 13.76H9.60641V23.156ZM64.003 28.448C64.003 29.312 63.949 30.212 63.841 31.148H42.943C43.087 33.02 43.681 34.46 44.725 35.468C45.805 36.44 47.119 36.926 48.667 36.926C50.971 36.926 52.573 35.954 53.473 34.01H63.301C62.797 35.99 61.879 37.772 60.547 39.356C59.251 40.94 57.613 42.182 55.633 43.082C53.653 43.982 51.439 44.432 48.991 44.432C46.039 44.432 43.411 43.802 41.107 42.542C38.803 41.282 37.003 39.482 35.707 37.142C34.411 34.802 33.763 32.066 33.763 28.934C33.763 25.802 34.393 23.066 35.653 20.726C36.949 18.386 38.749 16.586 41.053 15.326C43.357 14.066 46.003 13.436 48.991 13.436C51.907 13.436 54.499 14.048 56.767 15.272C59.035 16.496 60.799 18.242 62.059 20.51C63.355 22.778 64.003 25.424 64.003 28.448ZM54.553 26.018C54.553 24.434 54.013 23.174 52.933 22.238C51.853 21.302 50.503 20.834 48.883 20.834C47.335 20.834 46.021 21.284 44.941 22.184C43.897 23.084 43.249 24.362 42.997 26.018H54.553ZM81.1324 44.432C78.5044 44.432 76.1644 43.982 74.1124 43.082C72.0604 42.182 70.4404 40.958 69.2524 39.41C68.0644 37.826 67.3984 36.062 67.2544 34.118H76.3804C76.4884 35.162 76.9744 36.008 77.8384 36.656C78.7024 37.304 79.7644 37.628 81.0244 37.628C82.1764 37.628 83.0584 37.412 83.6704 36.98C84.3184 36.512 84.6424 35.918 84.6424 35.198C84.6424 34.334 84.1924 33.704 83.2924 33.308C82.3924 32.876 80.9344 32.408 78.9184 31.904C76.7584 31.4 74.9584 30.878 73.5184 30.338C72.0784 29.762 70.8364 28.88 69.7924 27.692C68.7484 26.468 68.2264 24.83 68.2264 22.778C68.2264 21.05 68.6944 19.484 69.6304 18.08C70.6024 16.64 72.0064 15.506 73.8424 14.678C75.7144 13.85 77.9284 13.436 80.4844 13.436C84.2644 13.436 87.2344 14.372 89.3944 16.244C91.5904 18.116 92.8504 20.6 93.1744 23.696H84.6424C84.4984 22.652 84.0304 21.824 83.2384 21.212C82.4824 20.6 81.4744 20.294 80.2144 20.294C79.1344 20.294 78.3064 20.51 77.7304 20.942C77.1544 21.338 76.8664 21.896 76.8664 22.616C76.8664 23.48 77.3164 24.128 78.2164 24.56C79.1524 24.992 80.5924 25.424 82.5364 25.856C84.7684 26.432 86.5864 27.008 87.9904 27.584C89.3944 28.124 90.6184 29.024 91.6624 30.284C92.7424 31.508 93.3004 33.164 93.3364 35.252C93.3364 37.016 92.8324 38.6 91.8244 40.004C90.8524 41.372 89.4304 42.452 87.5584 43.244C85.7224 44.036 83.5804 44.432 81.1324 44.432ZM103.63 10.736C102.01 10.736 100.678 10.268 99.6337 9.332C98.6257 8.36 98.1217 7.172 98.1217 5.768C98.1217 4.328 98.6257 3.14 99.6337 2.204C100.678 1.232 102.01 0.745997 103.63 0.745997C105.214 0.745997 106.51 1.232 107.518 2.204C108.562 3.14 109.084 4.328 109.084 5.768C109.084 7.172 108.562 8.36 107.518 9.332C106.51 10.268 105.214 10.736 103.63 10.736ZM108.22 13.868V44H98.9857V13.868H108.22ZM124.145 4.04V44H114.911V4.04H124.145ZM135.481 10.736C133.861 10.736 132.529 10.268 131.485 9.332C130.477 8.36 129.973 7.172 129.973 5.768C129.973 4.328 130.477 3.14 131.485 2.204C132.529 1.232 133.861 0.745997 135.481 0.745997C137.065 0.745997 138.361 1.232 139.369 2.204C140.413 3.14 140.935 4.328 140.935 5.768C140.935 7.172 140.413 8.36 139.369 9.332C138.361 10.268 137.065 10.736 135.481 10.736ZM140.071 13.868V44H130.837V13.868H140.071ZM175.167 28.448C175.167 29.312 175.113 30.212 175.005 31.148H154.107C154.251 33.02 154.845 34.46 155.889 35.468C156.969 36.44 158.283 36.926 159.831 36.926C162.135 36.926 163.737 35.954 164.637 34.01H174.465C173.961 35.99 173.043 37.772 171.711 39.356C170.415 40.94 168.777 42.182 166.797 43.082C164.817 43.982 162.603 44.432 160.155 44.432C157.203 44.432 154.575 43.802 152.271 42.542C149.967 41.282 148.167 39.482 146.871 37.142C145.575 34.802 144.927 32.066 144.927 28.934C144.927 25.802 145.557 23.066 146.817 20.726C148.113 18.386 149.913 16.586 152.217 15.326C154.521 14.066 157.167 13.436 160.155 13.436C163.071 13.436 165.663 14.048 167.931 15.272C170.199 16.496 171.963 18.242 173.223 20.51C174.519 22.778 175.167 25.424 175.167 28.448ZM165.717 26.018C165.717 24.434 165.177 23.174 164.097 22.238C163.017 21.302 161.667 20.834 160.047 20.834C158.499 20.834 157.185 21.284 156.105 22.184C155.061 23.084 154.413 24.362 154.161 26.018H165.717ZM198.398 13.544C201.926 13.544 204.734 14.696 206.822 17C208.946 19.268 210.008 22.4 210.008 26.396V44H200.828V27.638C200.828 25.622 200.306 24.056 199.262 22.94C198.218 21.824 196.814 21.266 195.05 21.266C193.286 21.266 191.882 21.824 190.838 22.94C189.794 24.056 189.272 25.622 189.272 27.638V44H180.038V13.868H189.272V17.864C190.208 16.532 191.468 15.488 193.052 14.732C194.636 13.94 196.418 13.544 198.398 13.544ZM233.219 36.17V44H228.521C225.173 44 222.563 43.19 220.691 41.57C218.819 39.914 217.883 37.232 217.883 33.524V21.536H214.211V13.868H217.883V6.524H227.117V13.868H233.165V21.536H227.117V33.632C227.117 34.532 227.333 35.18 227.765 35.576C228.197 35.972 228.917 36.17 229.925 36.17H233.219ZM262.064 44.432C259.436 44.432 257.096 43.982 255.044 43.082C252.992 42.182 251.372 40.958 250.184 39.41C248.996 37.826 248.33 36.062 248.186 34.118H257.312C257.42 35.162 257.906 36.008 258.77 36.656C259.634 37.304 260.696 37.628 261.956 37.628C263.108 37.628 263.99 37.412 264.602 36.98C265.25 36.512 265.574 35.918 265.574 35.198C265.574 34.334 265.124 33.704 264.224 33.308C263.324 32.876 261.866 32.408 259.85 31.904C257.69 31.4 255.89 30.878 254.45 30.338C253.01 29.762 251.768 28.88 250.724 27.692C249.68 26.468 249.158 24.83 249.158 22.778C249.158 21.05 249.626 19.484 250.562 18.08C251.534 16.64 252.938 15.506 254.774 14.678C256.646 13.85 258.86 13.436 261.416 13.436C265.196 13.436 268.166 14.372 270.326 16.244C272.522 18.116 273.782 20.6 274.106 23.696H265.574C265.43 22.652 264.962 21.824 264.17 21.212C263.414 20.6 262.406 20.294 261.146 20.294C260.066 20.294 259.238 20.51 258.662 20.942C258.086 21.338 257.798 21.896 257.798 22.616C257.798 23.48 258.248 24.128 259.148 24.56C260.084 24.992 261.524 25.424 263.468 25.856C265.7 26.432 267.518 27.008 268.922 27.584C270.326 28.124 271.55 29.024 272.594 30.284C273.674 31.508 274.232 33.164 274.268 35.252C274.268 37.016 273.764 38.6 272.756 40.004C271.784 41.372 270.362 42.452 268.49 43.244C266.654 44.036 264.512 44.432 262.064 44.432ZM293.633 44.432C290.681 44.432 288.017 43.802 285.641 42.542C283.301 41.282 281.447 39.482 280.079 37.142C278.747 34.802 278.081 32.066 278.081 28.934C278.081 25.838 278.765 23.12 280.133 20.78C281.501 18.404 283.373 16.586 285.749 15.326C288.125 14.066 290.789 13.436 293.741 13.436C296.693 13.436 299.357 14.066 301.733 15.326C304.109 16.586 305.981 18.404 307.349 20.78C308.717 23.12 309.401 25.838 309.401 28.934C309.401 32.03 308.699 34.766 307.295 37.142C305.927 39.482 304.037 41.282 301.625 42.542C299.249 43.802 296.585 44.432 293.633 44.432ZM293.633 36.44C295.397 36.44 296.891 35.792 298.115 34.496C299.375 33.2 300.005 31.346 300.005 28.934C300.005 26.522 299.393 24.668 298.169 23.372C296.981 22.076 295.505 21.428 293.741 21.428C291.941 21.428 290.447 22.076 289.259 23.372C288.071 24.632 287.477 26.486 287.477 28.934C287.477 31.346 288.053 33.2 289.205 34.496C290.393 35.792 291.869 36.44 293.633 36.44ZM329.42 21.536H324.452V44H315.218V21.536H311.87V13.868H315.218V13.004C315.218 9.296 316.28 6.488 318.404 4.58C320.528 2.636 323.642 1.664 327.746 1.664C328.43 1.664 328.934 1.682 329.258 1.718V9.548C327.494 9.44 326.252 9.692 325.532 10.304C324.812 10.916 324.452 12.014 324.452 13.598V13.868H329.42V21.536ZM350.553 36.17V44H345.855C342.507 44 339.897 43.19 338.025 41.57C336.153 39.914 335.217 37.232 335.217 33.524V21.536H331.545V13.868H335.217V6.524H344.451V13.868H350.499V21.536H344.451V33.632C344.451 34.532 344.667 35.18 345.099 35.576C345.531 35.972 346.251 36.17 347.259 36.17H350.553ZM398.951 13.868L390.797 44H380.591L375.839 24.452L370.925 44H360.773L352.565 13.868H361.799L366.065 35.414L371.141 13.868H380.915L386.045 35.306L390.257 13.868H398.951ZM400.636 28.88C400.636 25.784 401.212 23.066 402.364 20.726C403.552 18.386 405.154 16.586 407.17 15.326C409.186 14.066 411.436 13.436 413.92 13.436C416.044 13.436 417.898 13.868 419.482 14.732C421.102 15.596 422.344 16.73 423.208 18.134V13.868H432.442V44H423.208V39.734C422.308 41.138 421.048 42.272 419.428 43.136C417.844 44 415.99 44.432 413.866 44.432C411.418 44.432 409.186 43.802 407.17 42.542C405.154 41.246 403.552 39.428 402.364 37.088C401.212 34.712 400.636 31.976 400.636 28.88ZM423.208 28.934C423.208 26.63 422.56 24.812 421.264 23.48C420.004 22.148 418.456 21.482 416.62 21.482C414.784 21.482 413.218 22.148 411.922 23.48C410.662 24.776 410.032 26.576 410.032 28.88C410.032 31.184 410.662 33.02 411.922 34.388C413.218 35.72 414.784 36.386 416.62 36.386C418.456 36.386 420.004 35.72 421.264 34.388C422.56 33.056 423.208 31.238 423.208 28.934ZM448.356 18.89C449.436 17.234 450.786 15.938 452.406 15.002C454.026 14.03 455.826 13.544 457.806 13.544V23.318H455.268C452.964 23.318 451.236 23.822 450.084 24.83C448.932 25.802 448.356 27.53 448.356 30.014V44H439.122V13.868H448.356V18.89ZM490.624 28.448C490.624 29.312 490.57 30.212 490.462 31.148H469.564C469.708 33.02 470.302 34.46 471.346 35.468C472.426 36.44 473.74 36.926 475.288 36.926C477.592 36.926 479.194 35.954 480.094 34.01H489.922C489.418 35.99 488.5 37.772 487.168 39.356C485.872 40.94 484.234 42.182 482.254 43.082C480.274 43.982 478.06 44.432 475.612 44.432C472.66 44.432 470.032 43.802 467.728 42.542C465.424 41.282 463.624 39.482 462.328 37.142C461.032 34.802 460.384 32.066 460.384 28.934C460.384 25.802 461.014 23.066 462.274 20.726C463.57 18.386 465.37 16.586 467.674 15.326C469.978 14.066 472.624 13.436 475.612 13.436C478.528 13.436 481.12 14.048 483.388 15.272C485.656 16.496 487.42 18.242 488.68 20.51C489.976 22.778 490.624 25.424 490.624 28.448ZM481.174 26.018C481.174 24.434 480.634 23.174 479.554 22.238C478.474 21.302 477.124 20.834 475.504 20.834C473.956 20.834 472.642 21.284 471.562 22.184C470.518 23.084 469.87 24.362 469.618 26.018H481.174ZM535.343 28.448C535.343 29.312 535.289 30.212 535.181 31.148H514.283C514.427 33.02 515.021 34.46 516.065 35.468C517.145 36.44 518.459 36.926 520.007 36.926C522.311 36.926 523.913 35.954 524.813 34.01H534.641C534.137 35.99 533.219 37.772 531.887 39.356C530.591 40.94 528.953 42.182 526.973 43.082C524.993 43.982 522.779 44.432 520.331 44.432C517.379 44.432 514.751 43.802 512.447 42.542C510.143 41.282 508.343 39.482 507.047 37.142C505.751 34.802 505.103 32.066 505.103 28.934C505.103 25.802 505.733 23.066 506.993 20.726C508.289 18.386 510.089 16.586 512.393 15.326C514.697 14.066 517.343 13.436 520.331 13.436C523.247 13.436 525.839 14.048 528.107 15.272C530.375 16.496 532.139 18.242 533.399 20.51C534.695 22.778 535.343 25.424 535.343 28.448ZM525.893 26.018C525.893 24.434 525.353 23.174 524.273 22.238C523.193 21.302 521.843 20.834 520.223 20.834C518.675 20.834 517.361 21.284 516.281 22.184C515.237 23.084 514.589 24.362 514.337 26.018H525.893ZM558.574 13.544C562.102 13.544 564.91 14.696 566.998 17C569.122 19.268 570.184 22.4 570.184 26.396V44H561.004V27.638C561.004 25.622 560.482 24.056 559.438 22.94C558.394 21.824 556.99 21.266 555.226 21.266C553.462 21.266 552.058 21.824 551.014 22.94C549.97 24.056 549.448 25.622 549.448 27.638V44H540.214V13.868H549.448V17.864C550.384 16.532 551.644 15.488 553.228 14.732C554.812 13.94 556.594 13.544 558.574 13.544ZM588.049 13.436C590.173 13.436 592.027 13.868 593.611 14.732C595.231 15.596 596.473 16.73 597.337 18.134V13.868H606.571V43.946C606.571 46.718 606.013 49.22 604.897 51.452C603.817 53.72 602.143 55.52 599.875 56.852C597.643 58.184 594.853 58.85 591.505 58.85C587.041 58.85 583.423 57.788 580.651 55.664C577.879 53.576 576.295 50.732 575.899 47.132H585.025C585.313 48.284 585.997 49.184 587.077 49.832C588.157 50.516 589.489 50.858 591.073 50.858C592.981 50.858 594.493 50.3 595.609 49.184C596.761 48.104 597.337 46.358 597.337 43.946V39.68C596.437 41.084 595.195 42.236 593.611 43.136C592.027 44 590.173 44.432 588.049 44.432C585.565 44.432 583.315 43.802 581.299 42.542C579.283 41.246 577.681 39.428 576.493 37.088C575.341 34.712 574.765 31.976 574.765 28.88C574.765 25.784 575.341 23.066 576.493 20.726C577.681 18.386 579.283 16.586 581.299 15.326C583.315 14.066 585.565 13.436 588.049 13.436ZM597.337 28.934C597.337 26.63 596.689 24.812 595.393 23.48C594.133 22.148 592.585 21.482 590.749 21.482C588.913 21.482 587.347 22.148 586.051 23.48C584.791 24.776 584.161 26.576 584.161 28.88C584.161 31.184 584.791 33.02 586.051 34.388C587.347 35.72 588.913 36.386 590.749 36.386C592.585 36.386 594.133 35.72 595.393 34.388C596.689 33.056 597.337 31.238 597.337 28.934ZM617.895 10.736C616.275 10.736 614.943 10.268 613.899 9.332C612.891 8.36 612.387 7.172 612.387 5.768C612.387 4.328 612.891 3.14 613.899 2.204C614.943 1.232 616.275 0.745997 617.895 0.745997C619.479 0.745997 620.775 1.232 621.783 2.204C622.827 3.14 623.349 4.328 623.349 5.768C623.349 7.172 622.827 8.36 621.783 9.332C620.775 10.268 619.479 10.736 617.895 10.736ZM622.485 13.868V44H613.251V13.868H622.485ZM647.537 13.544C651.065 13.544 653.873 14.696 655.961 17C658.085 19.268 659.147 22.4 659.147 26.396V44H649.967V27.638C649.967 25.622 649.445 24.056 648.401 22.94C647.357 21.824 645.953 21.266 644.189 21.266C642.425 21.266 641.021 21.824 639.977 22.94C638.933 24.056 638.411 25.622 638.411 27.638V44H629.177V13.868H638.411V17.864C639.347 16.532 640.607 15.488 642.191 14.732C643.775 13.94 645.557 13.544 647.537 13.544ZM693.968 28.448C693.968 29.312 693.914 30.212 693.806 31.148H672.908C673.052 33.02 673.646 34.46 674.69 35.468C675.77 36.44 677.084 36.926 678.632 36.926C680.936 36.926 682.538 35.954 683.438 34.01H693.266C692.762 35.99 691.844 37.772 690.512 39.356C689.216 40.94 687.578 42.182 685.598 43.082C683.618 43.982 681.404 44.432 678.956 44.432C676.004 44.432 673.376 43.802 671.072 42.542C668.768 41.282 666.968 39.482 665.672 37.142C664.376 34.802 663.728 32.066 663.728 28.934C663.728 25.802 664.358 23.066 665.618 20.726C666.914 18.386 668.714 16.586 671.018 15.326C673.322 14.066 675.968 13.436 678.956 13.436C681.872 13.436 684.464 14.048 686.732 15.272C689 16.496 690.764 18.242 692.024 20.51C693.32 22.778 693.968 25.424 693.968 28.448ZM684.518 26.018C684.518 24.434 683.978 23.174 682.898 22.238C681.818 21.302 680.468 20.834 678.848 20.834C677.3 20.834 675.986 21.284 674.906 22.184C673.862 23.084 673.214 24.362 672.962 26.018H684.518ZM727.243 28.448C727.243 29.312 727.189 30.212 727.081 31.148H706.183C706.327 33.02 706.921 34.46 707.965 35.468C709.045 36.44 710.359 36.926 711.907 36.926C714.211 36.926 715.813 35.954 716.713 34.01H726.541C726.037 35.99 725.119 37.772 723.787 39.356C722.491 40.94 720.853 42.182 718.873 43.082C716.893 43.982 714.679 44.432 712.231 44.432C709.279 44.432 706.651 43.802 704.347 42.542C702.043 41.282 700.243 39.482 698.947 37.142C697.651 34.802 697.003 32.066 697.003 28.934C697.003 25.802 697.633 23.066 698.893 20.726C700.189 18.386 701.989 16.586 704.293 15.326C706.597 14.066 709.243 13.436 712.231 13.436C715.147 13.436 717.739 14.048 720.007 15.272C722.275 16.496 724.039 18.242 725.299 20.51C726.595 22.778 727.243 25.424 727.243 28.448ZM717.793 26.018C717.793 24.434 717.253 23.174 716.173 22.238C715.093 21.302 713.743 20.834 712.123 20.834C710.575 20.834 709.261 21.284 708.181 22.184C707.137 23.084 706.489 24.362 706.237 26.018H717.793ZM741.349 18.89C742.429 17.234 743.779 15.938 745.399 15.002C747.019 14.03 748.819 13.544 750.799 13.544V23.318H748.261C745.957 23.318 744.229 23.822 743.077 24.83C741.925 25.802 741.349 27.53 741.349 30.014V44H732.115V13.868H741.349V18.89ZM767.47 44.432C764.842 44.432 762.502 43.982 760.45 43.082C758.398 42.182 756.778 40.958 755.59 39.41C754.402 37.826 753.736 36.062 753.592 34.118H762.718C762.826 35.162 763.312 36.008 764.176 36.656C765.04 37.304 766.102 37.628 767.362 37.628C768.514 37.628 769.396 37.412 770.008 36.98C770.656 36.512 770.98 35.918 770.98 35.198C770.98 34.334 770.53 33.704 769.63 33.308C768.73 32.876 767.272 32.408 765.256 31.904C763.096 31.4 761.296 30.878 759.856 30.338C758.416 29.762 757.174 28.88 756.13 27.692C755.086 26.468 754.564 24.83 754.564 22.778C754.564 21.05 755.032 19.484 755.968 18.08C756.94 16.64 758.344 15.506 760.18 14.678C762.052 13.85 764.266 13.436 766.822 13.436C770.602 13.436 773.572 14.372 775.732 16.244C777.928 18.116 779.188 20.6 779.512 23.696H770.98C770.836 22.652 770.368 21.824 769.576 21.212C768.82 20.6 767.812 20.294 766.552 20.294C765.472 20.294 764.644 20.51 764.068 20.942C763.492 21.338 763.204 21.896 763.204 22.616C763.204 23.48 763.654 24.128 764.554 24.56C765.49 24.992 766.93 25.424 768.874 25.856C771.106 26.432 772.924 27.008 774.328 27.584C775.732 28.124 776.956 29.024 778 30.284C779.08 31.508 779.638 33.164 779.674 35.252C779.674 37.016 779.17 38.6 778.162 40.004C777.19 41.372 775.768 42.452 773.896 43.244C772.06 44.036 769.918 44.432 767.47 44.432ZM45.6514 109.448C45.6514 110.312 45.5974 111.212 45.4894 112.148H24.5914C24.7354 114.02 25.3294 115.46 26.3734 116.468C27.4534 117.44 28.7674 117.926 30.3154 117.926C32.6194 117.926 34.2214 116.954 35.1214 115.01H44.9494C44.4454 116.99 43.5274 118.772 42.1954 120.356C40.8994 121.94 39.2614 123.182 37.2814 124.082C35.3014 124.982 33.0874 125.432 30.6394 125.432C27.6874 125.432 25.0594 124.802 22.7554 123.542C20.4514 122.282 18.6514 120.482 17.3554 118.142C16.0594 115.802 15.4114 113.066 15.4114 109.934C15.4114 106.802 16.0414 104.066 17.3014 101.726C18.5974 99.386 20.3974 97.586 22.7014 96.326C25.0054 95.066 27.6514 94.436 30.6394 94.436C33.5554 94.436 36.1474 95.048 38.4154 96.272C40.6834 97.496 42.4474 99.242 43.7074 101.51C45.0034 103.778 45.6514 106.424 45.6514 109.448ZM36.2014 107.018C36.2014 105.434 35.6614 104.174 34.5814 103.238C33.5014 102.302 32.1514 101.834 30.5314 101.834C28.9834 101.834 27.6694 102.284 26.5894 103.184C25.5454 104.084 24.8974 105.362 24.6454 107.018H36.2014ZM88.9708 94.544C92.7148 94.544 95.6848 95.678 97.8808 97.946C100.113 100.214 101.229 103.364 101.229 107.396V125H92.0488V108.638C92.0488 106.694 91.5268 105.2 90.4828 104.156C89.4748 103.076 88.0708 102.536 86.2708 102.536C84.4708 102.536 83.0488 103.076 82.0048 104.156C80.9968 105.2 80.4928 106.694 80.4928 108.638V125H71.3128V108.638C71.3128 106.694 70.7908 105.2 69.7468 104.156C68.7388 103.076 67.3348 102.536 65.5348 102.536C63.7348 102.536 62.3128 103.076 61.2688 104.156C60.2608 105.2 59.7568 106.694 59.7568 108.638V125H50.5228V94.868H59.7568V98.648C60.6928 97.388 61.9168 96.398 63.4288 95.678C64.9408 94.922 66.6508 94.544 68.5588 94.544C70.8268 94.544 72.8428 95.03 74.6068 96.002C76.4068 96.974 77.8108 98.36 78.8188 100.16C79.8628 98.504 81.2848 97.154 83.0848 96.11C84.8848 95.066 86.8468 94.544 88.9708 94.544ZM116.921 99.134C117.785 97.73 119.027 96.596 120.647 95.732C122.267 94.868 124.121 94.436 126.209 94.436C128.693 94.436 130.943 95.066 132.959 96.326C134.975 97.586 136.559 99.386 137.711 101.726C138.899 104.066 139.493 106.784 139.493 109.88C139.493 112.976 138.899 115.712 137.711 118.088C136.559 120.428 134.975 122.246 132.959 123.542C130.943 124.802 128.693 125.432 126.209 125.432C124.085 125.432 122.231 125.018 120.647 124.19C119.063 123.326 117.821 122.192 116.921 120.788V125H107.687V85.04H116.921V99.134ZM130.097 109.88C130.097 107.576 129.449 105.776 128.153 104.48C126.893 103.148 125.327 102.482 123.455 102.482C121.619 102.482 120.053 103.148 118.757 104.48C117.497 105.812 116.867 107.63 116.867 109.934C116.867 112.238 117.497 114.056 118.757 115.388C120.053 116.72 121.619 117.386 123.455 117.386C125.291 117.386 126.857 116.72 128.153 115.388C129.449 114.02 130.097 112.184 130.097 109.88ZM172.741 109.448C172.741 110.312 172.687 111.212 172.579 112.148H151.681C151.825 114.02 152.419 115.46 153.463 116.468C154.543 117.44 155.857 117.926 157.405 117.926C159.709 117.926 161.311 116.954 162.211 115.01H172.039C171.535 116.99 170.617 118.772 169.285 120.356C167.989 121.94 166.351 123.182 164.371 124.082C162.391 124.982 160.177 125.432 157.729 125.432C154.777 125.432 152.149 124.802 149.845 123.542C147.541 122.282 145.741 120.482 144.445 118.142C143.149 115.802 142.501 113.066 142.501 109.934C142.501 106.802 143.131 104.066 144.391 101.726C145.687 99.386 147.487 97.586 149.791 96.326C152.095 95.066 154.741 94.436 157.729 94.436C160.645 94.436 163.237 95.048 165.505 96.272C167.773 97.496 169.537 99.242 170.797 101.51C172.093 103.778 172.741 106.424 172.741 109.448ZM163.291 107.018C163.291 105.434 162.751 104.174 161.671 103.238C160.591 102.302 159.241 101.834 157.621 101.834C156.073 101.834 154.759 102.284 153.679 103.184C152.635 104.084 151.987 105.362 151.735 107.018H163.291ZM175.777 109.88C175.777 106.784 176.353 104.066 177.505 101.726C178.693 99.386 180.295 97.586 182.311 96.326C184.327 95.066 186.577 94.436 189.061 94.436C191.041 94.436 192.841 94.85 194.461 95.678C196.117 96.506 197.413 97.622 198.349 99.026V85.04H207.583V125H198.349V120.68C197.485 122.12 196.243 123.272 194.623 124.136C193.039 125 191.185 125.432 189.061 125.432C186.577 125.432 184.327 124.802 182.311 123.542C180.295 122.246 178.693 120.428 177.505 118.088C176.353 115.712 175.777 112.976 175.777 109.88ZM198.349 109.934C198.349 107.63 197.701 105.812 196.405 104.48C195.145 103.148 193.597 102.482 191.761 102.482C189.925 102.482 188.359 103.148 187.063 104.48C185.803 105.776 185.173 107.576 185.173 109.88C185.173 112.184 185.803 114.02 187.063 115.388C188.359 116.72 189.925 117.386 191.761 117.386C193.597 117.386 195.145 116.72 196.405 115.388C197.701 114.056 198.349 112.238 198.349 109.934ZM212.427 109.88C212.427 106.784 213.003 104.066 214.155 101.726C215.343 99.386 216.945 97.586 218.961 96.326C220.977 95.066 223.227 94.436 225.711 94.436C227.691 94.436 229.491 94.85 231.111 95.678C232.767 96.506 234.063 97.622 234.999 99.026V85.04H244.233V125H234.999V120.68C234.135 122.12 232.893 123.272 231.273 124.136C229.689 125 227.835 125.432 225.711 125.432C223.227 125.432 220.977 124.802 218.961 123.542C216.945 122.246 215.343 120.428 214.155 118.088C213.003 115.712 212.427 112.976 212.427 109.88ZM234.999 109.934C234.999 107.63 234.351 105.812 233.055 104.48C231.795 103.148 230.247 102.482 228.411 102.482C226.575 102.482 225.009 103.148 223.713 104.48C222.453 105.776 221.823 107.576 221.823 109.88C221.823 112.184 222.453 114.02 223.713 115.388C225.009 116.72 226.575 117.386 228.411 117.386C230.247 117.386 231.795 116.72 233.055 115.388C234.351 114.056 234.999 112.238 234.999 109.934ZM279.317 109.448C279.317 110.312 279.263 111.212 279.155 112.148H258.257C258.401 114.02 258.995 115.46 260.039 116.468C261.119 117.44 262.433 117.926 263.981 117.926C266.285 117.926 267.887 116.954 268.787 115.01H278.615C278.111 116.99 277.193 118.772 275.861 120.356C274.565 121.94 272.927 123.182 270.947 124.082C268.967 124.982 266.753 125.432 264.305 125.432C261.353 125.432 258.725 124.802 256.421 123.542C254.117 122.282 252.317 120.482 251.021 118.142C249.725 115.802 249.077 113.066 249.077 109.934C249.077 106.802 249.707 104.066 250.967 101.726C252.263 99.386 254.063 97.586 256.367 96.326C258.671 95.066 261.317 94.436 264.305 94.436C267.221 94.436 269.813 95.048 272.081 96.272C274.349 97.496 276.113 99.242 277.373 101.51C278.669 103.778 279.317 106.424 279.317 109.448ZM269.867 107.018C269.867 105.434 269.327 104.174 268.247 103.238C267.167 102.302 265.817 101.834 264.197 101.834C262.649 101.834 261.335 102.284 260.255 103.184C259.211 104.084 258.563 105.362 258.311 107.018H269.867ZM282.353 109.88C282.353 106.784 282.929 104.066 284.081 101.726C285.269 99.386 286.871 97.586 288.887 96.326C290.903 95.066 293.153 94.436 295.637 94.436C297.617 94.436 299.417 94.85 301.037 95.678C302.693 96.506 303.989 97.622 304.925 99.026V85.04H314.159V125H304.925V120.68C304.061 122.12 302.819 123.272 301.199 124.136C299.615 125 297.761 125.432 295.637 125.432C293.153 125.432 290.903 124.802 288.887 123.542C286.871 122.246 285.269 120.428 284.081 118.088C282.929 115.712 282.353 112.976 282.353 109.88ZM304.925 109.934C304.925 107.63 304.277 105.812 302.981 104.48C301.721 103.148 300.173 102.482 298.337 102.482C296.501 102.482 294.935 103.148 293.639 104.48C292.379 105.776 291.749 107.576 291.749 109.88C291.749 112.184 292.379 114.02 293.639 115.388C294.935 116.72 296.501 117.386 298.337 117.386C300.173 117.386 301.721 116.72 302.981 115.388C304.277 114.056 304.925 112.238 304.925 109.934ZM375.537 94.868L367.383 125H357.177L352.425 105.452L347.511 125H337.359L329.151 94.868H338.385L342.651 116.414L347.727 94.868H357.501L362.631 116.306L366.843 94.868H375.537ZM383.702 91.736C382.082 91.736 380.75 91.268 379.706 90.332C378.698 89.36 378.194 88.172 378.194 86.768C378.194 85.328 378.698 84.14 379.706 83.204C380.75 82.232 382.082 81.746 383.702 81.746C385.286 81.746 386.582 82.232 387.59 83.204C388.634 84.14 389.156 85.328 389.156 86.768C389.156 88.172 388.634 89.36 387.59 90.332C386.582 91.268 385.286 91.736 383.702 91.736ZM388.292 94.868V125H379.058V94.868H388.292ZM411.778 117.17V125H407.08C403.732 125 401.122 124.19 399.25 122.57C397.378 120.914 396.442 118.232 396.442 114.524V102.536H392.77V94.868H396.442V87.524H405.676V94.868H411.724V102.536H405.676V114.632C405.676 115.532 405.892 116.18 406.324 116.576C406.756 116.972 407.476 117.17 408.484 117.17H411.778ZM435.443 94.544C438.899 94.544 441.671 95.696 443.759 98C445.847 100.268 446.891 103.4 446.891 107.396V125H437.711V108.638C437.711 106.622 437.189 105.056 436.145 103.94C435.101 102.824 433.697 102.266 431.933 102.266C430.169 102.266 428.765 102.824 427.721 103.94C426.677 105.056 426.155 106.622 426.155 108.638V125H416.921V85.04H426.155V98.918C427.091 97.586 428.369 96.524 429.989 95.732C431.609 94.94 433.427 94.544 435.443 94.544ZM495.531 94.868L476.631 139.31H466.695L473.607 123.974L461.349 94.868H471.663L478.629 113.714L485.541 94.868H495.531ZM512.586 125.432C509.634 125.432 506.97 124.802 504.594 123.542C502.254 122.282 500.4 120.482 499.032 118.142C497.7 115.802 497.034 113.066 497.034 109.934C497.034 106.838 497.718 104.12 499.086 101.78C500.454 99.404 502.326 97.586 504.702 96.326C507.078 95.066 509.742 94.436 512.694 94.436C515.646 94.436 518.31 95.066 520.686 96.326C523.062 97.586 524.934 99.404 526.302 101.78C527.67 104.12 528.354 106.838 528.354 109.934C528.354 113.03 527.652 115.766 526.248 118.142C524.88 120.482 522.99 122.282 520.578 123.542C518.202 124.802 515.538 125.432 512.586 125.432ZM512.586 117.44C514.35 117.44 515.844 116.792 517.068 115.496C518.328 114.2 518.958 112.346 518.958 109.934C518.958 107.522 518.346 105.668 517.122 104.372C515.934 103.076 514.458 102.428 512.694 102.428C510.894 102.428 509.4 103.076 508.212 104.372C507.024 105.632 506.43 107.486 506.43 109.934C506.43 112.346 507.006 114.2 508.158 115.496C509.346 116.792 510.822 117.44 512.586 117.44ZM563.007 94.868V125H553.773V120.896C552.837 122.228 551.559 123.308 549.939 124.136C548.355 124.928 546.591 125.324 544.647 125.324C542.343 125.324 540.309 124.82 538.545 123.812C536.781 122.768 535.413 121.274 534.441 119.33C533.469 117.386 532.983 115.1 532.983 112.472V94.868H542.163V111.23C542.163 113.246 542.685 114.812 543.729 115.928C544.773 117.044 546.177 117.602 547.941 117.602C549.741 117.602 551.163 117.044 552.207 115.928C553.251 114.812 553.773 113.246 553.773 111.23V94.868H563.007ZM578.874 99.89C579.954 98.234 581.304 96.938 582.924 96.002C584.544 95.03 586.344 94.544 588.324 94.544V104.318H585.786C583.482 104.318 581.754 104.822 580.602 105.83C579.45 106.802 578.874 108.53 578.874 111.014V125H569.64V94.868H578.874V99.89ZM620.975 117.17V125H616.277C612.929 125 610.319 124.19 608.447 122.57C606.575 120.914 605.639 118.232 605.639 114.524V102.536H601.967V94.868H605.639V87.524H614.873V94.868H620.921V102.536H614.873V114.632C614.873 115.532 615.089 116.18 615.521 116.576C615.953 116.972 616.673 117.17 617.681 117.17H620.975ZM654.523 109.448C654.523 110.312 654.469 111.212 654.361 112.148H633.463C633.607 114.02 634.201 115.46 635.245 116.468C636.325 117.44 637.639 117.926 639.187 117.926C641.491 117.926 643.093 116.954 643.993 115.01H653.821C653.317 116.99 652.399 118.772 651.067 120.356C649.771 121.94 648.133 123.182 646.153 124.082C644.173 124.982 641.959 125.432 639.511 125.432C636.559 125.432 633.931 124.802 631.627 123.542C629.323 122.282 627.523 120.482 626.227 118.142C624.931 115.802 624.283 113.066 624.283 109.934C624.283 106.802 624.913 104.066 626.173 101.726C627.469 99.386 629.269 97.586 631.573 96.326C633.877 95.066 636.523 94.436 639.511 94.436C642.427 94.436 645.019 95.048 647.287 96.272C649.555 97.496 651.319 99.242 652.579 101.51C653.875 103.778 654.523 106.424 654.523 109.448ZM645.073 107.018C645.073 105.434 644.533 104.174 643.453 103.238C642.373 102.302 641.023 101.834 639.403 101.834C637.855 101.834 636.541 102.284 635.461 103.184C634.417 104.084 633.769 105.362 633.517 107.018H645.073ZM657.558 109.88C657.558 106.784 658.134 104.066 659.286 101.726C660.474 99.386 662.076 97.586 664.092 96.326C666.108 95.066 668.358 94.436 670.842 94.436C672.966 94.436 674.82 94.868 676.404 95.732C678.024 96.596 679.266 97.73 680.13 99.134V94.868H689.364V125H680.13V120.734C679.23 122.138 677.97 123.272 676.35 124.136C674.766 125 672.912 125.432 670.788 125.432C668.34 125.432 666.108 124.802 664.092 123.542C662.076 122.246 660.474 120.428 659.286 118.088C658.134 115.712 657.558 112.976 657.558 109.88ZM680.13 109.934C680.13 107.63 679.482 105.812 678.186 104.48C676.926 103.148 675.378 102.482 673.542 102.482C671.706 102.482 670.14 103.148 668.844 104.48C667.584 105.776 666.954 107.576 666.954 109.88C666.954 112.184 667.584 114.02 668.844 115.388C670.14 116.72 671.706 117.386 673.542 117.386C675.378 117.386 676.926 116.72 678.186 115.388C679.482 114.056 680.13 112.238 680.13 109.934ZM734.492 94.544C738.236 94.544 741.206 95.678 743.402 97.946C745.634 100.214 746.75 103.364 746.75 107.396V125H737.57V108.638C737.57 106.694 737.048 105.2 736.004 104.156C734.996 103.076 733.592 102.536 731.792 102.536C729.992 102.536 728.57 103.076 727.526 104.156C726.518 105.2 726.014 106.694 726.014 108.638V125H716.834V108.638C716.834 106.694 716.312 105.2 715.268 104.156C714.26 103.076 712.856 102.536 711.056 102.536C709.256 102.536 707.834 103.076 706.79 104.156C705.782 105.2 705.278 106.694 705.278 108.638V125H696.044V94.868H705.278V98.648C706.214 97.388 707.438 96.398 708.95 95.678C710.462 94.922 712.172 94.544 714.08 94.544C716.348 94.544 718.364 95.03 720.128 96.002C721.928 96.974 723.332 98.36 724.34 100.16C725.384 98.504 726.806 97.154 728.606 96.11C730.406 95.066 732.368 94.544 734.492 94.544ZM757.528 125.432C755.908 125.432 754.576 124.964 753.532 124.028C752.524 123.056 752.02 121.868 752.02 120.464C752.02 119.024 752.524 117.818 753.532 116.846C754.576 115.874 755.908 115.388 757.528 115.388C759.112 115.388 760.408 115.874 761.416 116.846C762.46 117.818 762.982 119.024 762.982 120.464C762.982 121.868 762.46 123.056 761.416 124.028C760.408 124.964 759.112 125.432 757.528 125.432Z" fill="#1F2937"/>
</svg>
