<svg width="130" height="43" viewBox="0 0 130 43" fill="none" xmlns="http://www.w3.org/2000/svg">
<path d="M51.851 21.973C51.851 20.409 52.2113 19.006 52.932 17.764C53.668 16.522 54.657 15.556 55.899 14.866C57.1563 14.1607 58.5287 13.808 60.016 13.808C61.718 13.808 63.2283 14.2297 64.547 15.073C65.881 15.901 66.847 17.0817 67.445 18.615H64.294C63.88 17.7717 63.305 17.143 62.569 16.729C61.833 16.315 60.982 16.108 60.016 16.108C58.958 16.108 58.015 16.3457 57.187 16.821C56.359 17.2963 55.7073 17.9787 55.232 18.868C54.772 19.7573 54.542 20.7923 54.542 21.973C54.542 23.1537 54.772 24.1887 55.232 25.078C55.7073 25.9673 56.359 26.6573 57.187 27.148C58.015 27.6233 58.958 27.861 60.016 27.861C60.982 27.861 61.833 27.654 62.569 27.24C63.305 26.826 63.88 26.1973 64.294 25.354H67.445C66.847 26.8873 65.881 28.068 64.547 28.896C63.2283 29.724 61.718 30.138 60.016 30.138C58.5133 30.138 57.141 29.793 55.899 29.103C54.657 28.3977 53.668 27.424 52.932 26.182C52.2113 24.94 51.851 23.537 51.851 21.973ZM72.9061 19.167C73.2894 18.523 73.7954 18.0247 74.4241 17.672C75.0681 17.304 75.8271 17.12 76.7011 17.12V19.834H76.0341C75.0067 19.834 74.2247 20.0947 73.6881 20.616C73.1667 21.1373 72.9061 22.042 72.9061 23.33V30H70.2841V17.327H72.9061V19.167ZM90.4962 23.353C90.4962 23.8283 90.4655 24.2577 90.4042 24.641H80.7212C80.7979 25.653 81.1735 26.4657 81.8482 27.079C82.5229 27.6923 83.3509 27.999 84.3322 27.999C85.7429 27.999 86.7395 27.4087 87.3222 26.228H90.1512C89.7679 27.3933 89.0702 28.3517 88.0582 29.103C87.0615 29.839 85.8195 30.207 84.3322 30.207C83.1209 30.207 82.0322 29.9387 81.0662 29.402C80.1155 28.85 79.3642 28.0833 78.8122 27.102C78.2755 26.1053 78.0072 24.9553 78.0072 23.652C78.0072 22.3487 78.2679 21.2063 78.7892 20.225C79.3259 19.2283 80.0695 18.4617 81.0202 17.925C81.9862 17.3883 83.0902 17.12 84.3322 17.12C85.5282 17.12 86.5939 17.3807 87.5292 17.902C88.4645 18.4233 89.1929 19.1593 89.7142 20.11C90.2355 21.0453 90.4962 22.1263 90.4962 23.353ZM87.7592 22.525C87.7439 21.559 87.3989 20.7847 86.7242 20.202C86.0495 19.6193 85.2139 19.328 84.2172 19.328C83.3125 19.328 82.5382 19.6193 81.8942 20.202C81.2502 20.7693 80.8669 21.5437 80.7442 22.525H87.7592ZM91.9725 23.606C91.9725 22.3333 92.2332 21.2063 92.7545 20.225C93.2912 19.2437 94.0119 18.4847 94.9165 17.948C95.8365 17.396 96.8485 17.12 97.9525 17.12C98.9492 17.12 99.8155 17.3193 100.552 17.718C101.303 18.1013 101.901 18.5843 102.346 19.167V17.327H104.991V30H102.346V28.114C101.901 28.712 101.295 29.2103 100.529 29.609C99.7619 30.0077 98.8879 30.207 97.9065 30.207C96.8179 30.207 95.8212 29.931 94.9165 29.379C94.0119 28.8117 93.2912 28.0297 92.7545 27.033C92.2332 26.021 91.9725 24.8787 91.9725 23.606ZM102.346 23.652C102.346 22.778 102.162 22.019 101.794 21.375C101.441 20.731 100.973 20.2403 100.391 19.903C99.8079 19.5657 99.1792 19.397 98.5045 19.397C97.8299 19.397 97.2012 19.5657 96.6185 19.903C96.0359 20.225 95.5605 20.708 95.1925 21.352C94.8399 21.9807 94.6635 22.732 94.6635 23.606C94.6635 24.48 94.8399 25.2467 95.1925 25.906C95.5605 26.5653 96.0359 27.0713 96.6185 27.424C97.2165 27.7613 97.8452 27.93 98.5045 27.93C99.1792 27.93 99.8079 27.7613 100.391 27.424C100.973 27.0867 101.441 26.596 101.794 25.952C102.162 25.2927 102.346 24.526 102.346 23.652ZM111.263 19.466V26.481C111.263 26.9563 111.371 27.3013 111.585 27.516C111.815 27.7153 112.199 27.815 112.735 27.815H114.345V30H112.275C111.095 30 110.19 29.724 109.561 29.172C108.933 28.62 108.618 27.723 108.618 26.481V19.466H107.123V17.327H108.618V14.176H111.263V17.327H114.345V19.466H111.263ZM128.147 23.353C128.147 23.8283 128.116 24.2577 128.055 24.641H118.372C118.449 25.653 118.824 26.4657 119.499 27.079C120.174 27.6923 121.002 27.999 121.983 27.999C123.394 27.999 124.39 27.4087 124.973 26.228H127.802C127.419 27.3933 126.721 28.3517 125.709 29.103C124.712 29.839 123.47 30.207 121.983 30.207C120.772 30.207 119.683 29.9387 118.717 29.402C117.766 28.85 117.015 28.0833 116.463 27.102C115.926 26.1053 115.658 24.9553 115.658 23.652C115.658 22.3487 115.919 21.2063 116.44 20.225C116.977 19.2283 117.72 18.4617 118.671 17.925C119.637 17.3883 120.741 17.12 121.983 17.12C123.179 17.12 124.245 17.3807 125.18 17.902C126.115 18.4233 126.844 19.1593 127.365 20.11C127.886 21.0453 128.147 22.1263 128.147 23.353ZM125.41 22.525C125.395 21.559 125.05 20.7847 124.375 20.202C123.7 19.6193 122.865 19.328 121.868 19.328C120.963 19.328 120.189 19.6193 119.545 20.202C118.901 20.7693 118.518 21.5437 118.395 22.525H125.41Z" fill="#1F2937"/>
<rect width="43" height="43" rx="6" fill="#1F2937"/>
<path d="M10.55 16.172C11.586 16.172 12.4913 16.3773 13.266 16.788C14.0407 17.1987 14.638 17.7773 15.058 18.524C15.4873 19.2613 15.702 20.1153 15.702 21.086C15.702 22.0473 15.4873 22.9013 15.058 23.648C14.638 24.3947 14.036 24.9733 13.252 25.384C12.4773 25.7947 11.5767 26 10.55 26H6.868V16.172H10.55ZM10.396 23.928C11.3013 23.928 12.006 23.6807 12.51 23.186C13.014 22.6913 13.266 21.9913 13.266 21.086C13.266 20.1807 13.014 19.476 12.51 18.972C12.006 18.468 11.3013 18.216 10.396 18.216H9.262V23.928H10.396ZM22.1207 16.172V26H19.7267V16.172H22.1207ZM34.9704 16.172L31.5684 22.752V26H29.1744V22.752L25.7724 16.172H28.4884L30.3924 20.288L32.2824 16.172H34.9704Z" fill="white"/>
</svg>
